<svg id="Livello_1" data-name="Livello 1" xmlns="http://www.w3.org/2000/svg" viewBox="0 0 1128.75 435.08"><defs><style>.cls-1,.cls-2,.cls-4{fill:none;stroke-miterlimit:10;}.cls-1{stroke:red;stroke-width:1.5px;}.cls-2,.cls-4{stroke:#29abe2;}.cls-2{stroke-width:30px;}.cls-3{font-size:72px;fill:#ed1c24;letter-spacing:0.08em;}.cls-3,.cls-5{font-family:MyriadPro-Regular, Myriad Pro;}.cls-4{stroke-width:36px;}.cls-5{font-size:225px;fill:red;}.cls-6{letter-spacing:-0.03em;}.cls-7{letter-spacing:-0.03em;}.cls-8{letter-spacing:0em;}</style></defs><title>logo</title><polyline class="cls-1" points="312 143.33 339 170.33 339 260.33 424.5 345.83"/><polyline class="cls-1" points="240 179.33 294 179.33 312 179.33 330 197.33 330 260.33 424.5 354.83"/><polyline class="cls-1" points="420 359.33 321 260.33 321 206.33 303 188.33 258 188.33"/><polyline class="cls-1" points="474.56 251.33 415.38 188.12 398.73 188.57 348 134.39 348 116.33"/><path class="cls-2" d="M225,575.85c-132.55,0-162,9-162-71.85s29.45-71.85,162-71.85" transform="translate(-48 -162.67)"/><polyline class="cls-2" points="240 251.33 240 413.33 357 413.33"/><text class="cls-3" transform="translate(465 359.33)">TECH</text><path class="cls-4" d="M522,333a72,72,0,0,1,72,72" transform="translate(-48 -162.67)"/><path class="cls-4" d="M207,432" transform="translate(-48 -162.67)"/><path class="cls-4" d="M207,423V378c0-81,68.5-162,153-162s153,55.69,153,135.5" transform="translate(-48 -162.67)"/><path class="cls-4" d="M252,405" transform="translate(-48 -162.67)"/><path class="cls-2" d="M909,405v99c.78,48.28-33.06,75.28-71.22,75.28-36,0-72-27-72-72v-99" transform="translate(-48 -162.67)"/><path class="cls-2" d="M972,566.7c132.55,0,162,9,162-71.85S1104.55,423,972,423Z" transform="translate(-48 -162.67)"/><path class="cls-2" d="M1044,621" transform="translate(-48 -162.67)"/><text class="cls-5" transform="translate(591 188.33)"><tspan class="cls-6">A</tspan><tspan x="131.4" y="0">U</tspan><tspan class="cls-7" x="276.97" y="0">T</tspan><tspan class="cls-8" x="382.72" y="0">O</tspan></text><path class="cls-1" d="M504,414" transform="translate(-48 -162.67)"/><path class="cls-1" d="M513,414" transform="translate(-48 -162.67)"/><polyline class="cls-1" points="447 260.33 438 251.33 438 242.33"/><polyline class="cls-1" points="429 287.33 402 260.33 402 224.33 370.5 192.83"/><path class="cls-1" d="M414,342" transform="translate(-48 -162.67)"/><circle class="cls-1" cx="348" cy="111.83" r="4.5"/><circle class="cls-1" cx="361.76" cy="134.15" r="4.5"/><circle class="cls-1" cx="367.52" cy="189.9" r="4.5"/><polyline class="cls-1" points="366 134.33 375 134.33 483 251.33"/><circle class="cls-1" cx="411" cy="210.83" r="4.5"/><circle class="cls-1" cx="384" cy="228.83" r="4.5"/><circle class="cls-1" cx="237.17" cy="203.48" r="4.5"/><circle class="cls-1" cx="289.5" cy="332.33" r="4.5"/><circle class="cls-1" cx="253.5" cy="188.33" r="4.5"/><circle class="cls-1" cx="438" cy="237.83" r="4.5"/><circle class="cls-1" cx="366" cy="210.83" r="4.5"/><circle class="cls-1" cx="275.96" cy="309.83" r="4.5"/><circle class="cls-1" cx="235.5" cy="179.33" r="4.5"/><circle class="cls-1" cx="309.24" cy="140.09" r="4.5"/><circle class="cls-1" cx="330" cy="111.83" r="4.5"/><circle class="cls-1" cx="262.5" cy="359.33" r="4.5"/><polyline class="cls-1" points="330 116.33 330 134.33 393 197.33 411 197.33 465 251.33"/><path class="cls-1" d="M459,423" transform="translate(-48 -162.67)"/><polyline class="cls-1" points="411 215.33 411 260.33 433.5 282.83"/><polyline class="cls-1" points="384 233.33 384 242.33 384 260.33 424.5 300.83"/><polyline class="cls-1" points="366 215.33 366 260.33 424.5 318.83"/><path class="cls-2" d="M666,423c63,9,63,144,0,153s-81,9-144,0c-54.19-7.74-54-144,0-153C578.72,413.55,623.38,416.91,666,423Z" transform="translate(-48 -162.67)"/><path class="cls-1" d="M468,531" transform="translate(-48 -162.67)"/><path class="cls-1" d="M306,387" transform="translate(-48 -162.67)"/><polyline class="cls-1" points="285 206.33 285 269.33 384 368.33 420 368.33"/><path class="cls-1" d="M288,396" transform="translate(-48 -162.67)"/><path class="cls-1" d="M297,378" transform="translate(-48 -162.67)"/><polyline class="cls-1" points="240 206.33 267 224.33 267 269.33 348 350.33 348 395.33"/><polyline class="cls-1" points="267 287.33 330 350.33 330 395.33"/><polyline class="cls-1" points="321 395.33 321 350.33 303 332.33 294 332.33"/><circle class="cls-1" cx="285" cy="202.13" r="4.5"/><circle class="cls-1" cx="264.37" cy="284.25" r="4.5"/><circle class="cls-1" cx="267" cy="300.83" r="4.5"/><path class="cls-1" d="M405,477" transform="translate(-48 -162.67)"/><path class="cls-1" d="M360,558" transform="translate(-48 -162.67)"/><path class="cls-1" d="M351,558" transform="translate(-48 -162.67)"/><path class="cls-1" d="M357.24,558" transform="translate(-48 -162.67)"/><polyline class="cls-1" points="312 395.33 312 368.33 275.96 332.29 275.96 314.33"/><polyline class="cls-1" points="303 395.33 303 377.07 267.13 341.2 267 304.78"/><path class="cls-1" d="M315,558" transform="translate(-48 -162.67)"/><polyline class="cls-1" points="294 395.33 294 386.7 294 377.92 275.79 359.71 267 359.33"/></svg>